inDegrees=yes
name=ik_S53_A05_T01
DataType=double
version=3
OpenSimVersion=4.3-2021-08-27-4bc7ad9
endheader
time	pelvis_tilt	pelvis_list	pelvis_rotation	pelvis_tx	pelvis_ty	pelvis_tz	hip_flexion_r	hip_adduction_r	hip_rotation_r	knee_angle_r	knee_angle_r_beta	ankle_angle_r	subtalar_angle_r	mtp_angle_r	hip_flexion_l	hip_adduction_l	hip_rotation_l	knee_angle_l	knee_angle_l_beta	ankle_angle_l	subtalar_angle_l	mtp_angle_l	lumbar_extension	lumbar_bending	lumbar_rotation	arm_flex_r	arm_add_r	arm_rot_r	elbow_flex_r	pro_sup_r	wrist_flex_r	wrist_dev_r	arm_flex_l	arm_add_l	arm_rot_l	elbow_flex_l	pro_sup_l	wrist_flex_l	wrist_dev_l
0	0	0	0	0	0.9399999999999999	0	0	0	0	0	0	0	0	0	0	0	0	0	0	0	0	0	0	0	0	0	0	0	0	89.99999999963507	0	0	0	0	0	0	89.99999999869995	0	0
0.02	-5.494555586869811	-1.119163728348201	20.70378237249764	0	0.9399999999999999	0	3.347484402158309	-1.557804228237635	-1.126375304411801	5.209879110986886	0.09092954411759625	0	0	0	3.347484402158309	-1.557804228237635	-1.126375304411801	5.209879110986886	0.09092954411759625	0	0	0	-3.603423388485617	-2.255234797743568	3.821473668390023	18.09253341420857	-2.636072377664991	-2.550127884384541	42.10988133966968	132.1183744091142	0	0	21.1589425217478	-5.363058744669507	6.318603553315413	36.43177033459837	120.8358705343523	0	0
0.04	-5.304020981556237	-1.228848780517376	19.97557554508478	0	0.9399999999999999	0	27.41191090802524	-15.12743925103283	-8.852476029245363	49.04596629991322	0.8560135967556664	0	0	0	27.41191090802524	-15.12743925103283	-8.852476029245363	49.04596629991322	0.8560135967556664	0	0	0	-3.730955587114655	-2.136271210288964	4.546992813473643	18.10137338244224	-2.632714234380285	-2.533225299663525	42.08875926821248	132.1209330211431	0	0	21.15377800912207	-5.351504958093087	6.282198737702581	36.47241231969809	120.8652797695279	0	0
0.06	-5.310974584555696	-1.233066800972973	19.98340449071655	0	0.9399999999999999	0	27.44128233367189	-15.09567949055768	-8.856794126358043	49.0521735752823	0.8561219341484346	0	0	0	27.44128233367189	-15.09567949055768	-8.856794126358043	49.0521735752823	0.8561219341484346	0	0	0	-3.74069792678753	-2.134870777324901	4.541795739511094	18.09323868158453	-2.649712290395084	-2.509855832817234	42.11899858539116	132.064137349135	0	3.316815393158691e-52	21.15202961438939	-5.34902013039393	6.265136322152601	36.50616894314835	120.8507736558187	0	3.316815393158691e-52
0.08	-5.308726823583432	-1.235905909448029	19.98589797617711	0	0.9399999999999999	0	27.47058753169529	-15.06864978762076	-8.860769500075682	49.05868536074414	0.8562355862449273	0	0	0	27.47058753169529	-15.06864978762076	-8.860769500075682	49.05868536074414	0.8562355862449273	0	0	0	-3.741554566166943	-2.134622128725657	4.528344017666224	18.0787701319413	-2.638735627795774	-2.454473984578156	42.1337479652254	132.0099575172291	0	0	21.13621175762036	-5.332849338502281	6.255377699798591	36.52898139570192	120.8505451124406	0	0
0.1	-5.317253683629695	-1.241261073724448	19.99104258991033	0	0.9399999999999999	0	27.49891704343523	-15.03813814727312	-8.86494568311708	49.06469334497176	0.8563404453511072	0	0	0	27.49891704343523	-15.03813814727312	-8.86494568311708	49.06469334497176	0.8563404453511072	0	0	0	-3.753146067728714	-2.133724752011763	4.52132039614643	18.08536892136816	-2.631208728128871	-2.426436598441933	42.16558274459299	131.975838515445	0	0	21.14117841359572	-5.329880702935914	6.240699763230492	36.56649355807015	120.8421701432683	0	0
0.12	-5.328238128522294	-1.249245724425262	19.99013391076124	0	0.9399999999999999	0	27.52290563605863	-15.01513221306737	-8.868280433366166	49.07000529692784	0.8564331564024485	0	0	0	27.52290563605863	-15.01513221306737	-8.868280433366166	49.07000529692784	0.8564331564024485	0	0	0	-3.767839920477011	-2.134571012331012	4.513185798466295	18.11237470098611	-2.625423911415995	-2.420730412584025	42.18604542227597	131.9587513438742	0	0	21.16128635195454	-5.317949358437208	6.205857205969347	36.58245993460372	120.8417280635425	0	0
0.14	-5.330901140335674	-1.253723414431865	19.99425459781948	0	0.9399999999999999	0	27.56030961160038	-14.98248031294563	-8.873219442758579	49.07838130938143	0.8565793453979517	0	0	0	27.56030961160038	-14.98248031294563	-8.873219442758579	49.07838130938143	0.8565793453979517	0	0	0	-3.774356632928104	-2.133581184414854	4.504679019869376	18.11124497417235	-2.662334841836886	-2.404857283526885	42.23274563148993	131.9106595337998	0	0	21.17375841791969	-5.330766269813332	6.185923540325799	36.6192692294831	120.8259986635545	0	0
0.16	-5.339501635702337	-1.262770599141784	19.98917768357667	0	0.9399999999999999	0	27.58729269463669	-14.96070042245173	-8.876645294913002	49.0845155330959	0.8566864077988232	0	0	0	27.58729269463669	-14.96070042245173	-8.876645294913002	49.0845155330959	0.8566864077988232	0	0	0	-3.787430576439952	-2.135950928427235	4.497707746092431	18.13463899937402	-2.647658606874832	-2.4009439355139	42.27203813894864	131.8715411664402	0	0	21.19038701544089	-5.315154853984585	6.148833545487235	36.64823310768047	120.8066549720725	0	0
0.18	-5.335857046538844	-1.264302559667197	19.97132358564494	0	0.9399999999999999	0	27.58381895178482	-14.96405977951614	-8.876198818323266	49.08385227407758	0.8566748317451599	0	0	0	27.58381895178482	-14.96405977951614	-8.876198818323266	49.08385227407758	0.8566748317451599	0	0	0	-3.784423355595661	-2.138767483917529	4.496090874221271	18.12624734192195	-2.654505496195698	-2.400257840426145	42.24391182357157	131.9244036432403	0	0	21.18661464740562	-5.328296699444391	6.147575559611274	36.58952781804131	120.85319408639	0	0
0.2	-5.339548333488967	-1.268004771677534	19.96993382546104	0	0.9399999999999999	0	27.61183959290392	-14.93837229537114	-8.880016986778838	49.09010303486725	0.8567839281016943	0	0	0	27.61183959290392	-14.93837229537114	-8.880016986778838	49.09010303486725	0.8567839281016943	0	0	0	-3.790913549912495	-2.138197535015187	4.494555078040374	18.13828838430994	-2.656472024136032	-2.418699809429927	42.26003771595625	131.9185561289841	0	0	21.19701796345117	-5.34408055166711	6.155374214379326	36.60448227002021	120.8442574687242	0	0
0.22	-5.338028520377576	-1.26535893507509	19.96096131291115	0	0.9399999999999999	0	27.63692066500588	-14.91718059694365	-8.883307791624718	49.09583413225754	0.8568839546209072	0	0	0	27.63692066500588	-14.91718059694365	-8.883307791624718	49.09583413225754	0.8568839546209072	0	0	0	-3.790268543199783	-2.133430662404707	4.489668113015637	18.13951642021228	-2.643315823417396	-2.421158894832444	42.2758524747024	131.9218549095135	0	0	21.19867881955403	-5.332124166523693	6.162589618551539	36.59444351596894	120.8361204424	0	0
0.24	-5.337592122340628	-1.268814262099145	19.95990077193676	0	0.9399999999999999	0	27.67280609983701	-14.90544392299191	-8.886617183130413	49.10519730608777	0.8570473728326813	0	0	0	27.67280609983701	-14.90544392299191	-8.886617183130413	49.10519730608777	0.8570473728326813	0	0	0	-3.793528865919661	-2.133075448919664	4.491001253409917	18.1476842928635	-2.632944446197081	-2.441650146410931	42.30271643312629	131.9234032825621	0	0	21.19823900421293	-5.326990311340909	6.157441614985574	36.59847933423757	120.8237177148428	0	0
0.26	-5.336243130231723	-1.27060350190353	19.9526648941945	0	0.9399999999999999	0	27.70235172228051	-14.87860842018698	-8.890620120158298	49.11179787585235	0.8571625745075809	0	0	0	27.70235172228051	-14.87860842018698	-8.890620120158298	49.11179787585235	0.8571625745075809	0	0	0	-3.794815640131239	-2.131914962212819	4.484067619750235	18.14686737152929	-2.630209197037805	-2.439899235785389	42.32460392656992	131.9038930501052	0	0	21.19313352396604	-5.338483623399124	6.159786599640064	36.61199556844652	120.8087307270035	0	0
0.28	-5.336237434496355	-1.26769577876159	19.94957517334786	0	0.9399999999999999	0	27.72048048713055	-14.86520089968795	-8.892841624187362	49.1160562658209	0.857236897433366	0	0	0	27.72048048713055	-14.86520089968795	-8.892841624187362	49.1160562658209	0.857236897433366	0	0	0	-3.795165767593654	-2.126847489096191	4.477421879916181	18.14335901829574	-2.623844202082889	-2.443249223943345	42.33243210497471	131.8866808022423	0	0	21.19631323771172	-5.32773649967582	6.138365975945023	36.61122941402031	120.8130942544415	0	0
0.3	-5.329495430266855	-1.268881715168847	19.94857153371958	0	0.9399999999999999	0	27.80060381229237	-14.82533507649504	-8.901174692103755	49.1356964818581	0.8575796838690182	0	0	0	27.80060381229237	-14.82533507649504	-8.901174692103755	49.1356964818581	0.8575796838690182	0	0	0	-3.794414728601284	-2.123214374569415	4.479025138488694	18.11893935490773	-2.627656234247863	-2.440725114043391	42.38684519556436	131.8218314394787	0	0	21.18736560447034	-5.332597883203716	6.128384820593667	36.64935464010387	120.7752009056702	0	0
0.32	-5.333908347875677	-1.269343975659873	19.93651162957798	0	0.9399999999999999	0	27.8298046012167	-14.81161383888511	-8.904169460614115	49.14308923417435	0.857708711737721	0	0	0	27.8298046012167	-14.81161383888511	-8.904169460614115	49.14308923417435	0.857708711737721	0	0	0	-3.800845913374148	-2.118717593945568	4.47557248349578	18.13873331292129	-2.604375903962139	-2.444035997170779	42.40084928306572	131.8281968376569	0	0	21.20114015188485	-5.312251643108029	6.104045598139174	36.64508220959536	120.7782507076081	0	0
0.34	-5.332468982017014	-1.274430925750843	19.93696137856572	0	0.9399999999999999	0	27.85533951462394	-14.7981539195205	-8.906909250019686	49.14944824681665	0.8578196974455052	0	0	0	27.85533951462394	-14.7981539195205	-8.906909250019686	49.14944824681665	0.8578196974455052	0	0	0	-3.803157216108738	-2.120666138531065	4.46810522901152	18.14247516448212	-2.601668315332653	-2.445084096014273	42.40776505606325	131.8271631853308	0	0	21.20557532565033	-5.320185040935883	6.081566315073343	36.63877731057815	120.7893713984908	0	0
0.36	-5.333057726156643	-1.274648551916782	19.92524767718612	0	0.9399999999999999	0	27.87423774613375	-14.78042288617842	-8.90951787324982	49.15367130838926	0.8578934037744617	0	0	0	27.87423774613375	-14.78042288617842	-8.90951787324982	49.15367130838926	0.8578934037744617	0	0	0	-3.805025337597499	-2.118574991300439	4.46354119561351	18.14454314618289	-2.598700456857203	-2.471069921906612	42.42437402883403	131.8321054454442	0	0	21.20735152345387	-5.314723000935834	6.057320602708156	36.63997955568011	120.7990200467099	0	0
0.3800000000000001	-5.329317950535673	-1.274921144332039	19.92177662812028	0	0.9399999999999999	0	27.88585006549774	-14.76958703138686	-8.911116856946446	49.15631584566687	0.8579395596571476	0	0	0	27.88585006549774	-14.76958703138686	-8.911116856946446	49.15631584566687	0.8579395596571476	0	0	0	-3.802272128130108	-2.119145916300847	4.465133765175641	18.13863830807708	-2.587596814191096	-2.495407446022692	42.4250059169143	131.8487970746064	0	0	21.20563810128897	-5.305292277192569	6.037889961487942	36.63911064289425	120.809356745959	0	0
0.4000000000000001	-5.326998582463879	-1.278862240238089	19.91672667006547	0	0.9399999999999999	0	27.91053678484293	-14.74700588295003	-8.914465373869199	49.16183031108906	0.8580358052352521	0	0	0	27.91053678484293	-14.74700588295003	-8.914465373869199	49.16183031108906	0.8580358052352521	0	0	0	-3.802992716576234	-2.121090920536176	4.461410216862443	18.13795541831791	-2.573853393194911	-2.50262032581905	42.4447058636337	131.835612088565	0	0	21.20764899097918	-5.308454973907536	6.039237284020278	36.65526588371915	120.7960181493897	0	0
